<mxfile host="app.diagrams.net" modified="2024-03-22T10:15:31.918Z" agent="Mozilla/5.0 (Macintosh; Intel Mac OS X 10_15_7) AppleWebKit/537.36 (KHTML, like Gecko) Chrome/122.0.0.0 Safari/537.36" etag="URWLuuR17VPGnP_XDbZ4" version="24.0.7" type="github">
  <diagram id="C5RBs43oDa-KdzZeNtuy" name="Page-1">
    <mxGraphModel dx="2474" dy="903" grid="1" gridSize="10" guides="1" tooltips="1" connect="1" arrows="1" fold="1" page="1" pageScale="1" pageWidth="827" pageHeight="1169" math="0" shadow="0">
      <root>
        <mxCell id="WIyWlLk6GJQsqaUBKTNV-0" />
        <mxCell id="WIyWlLk6GJQsqaUBKTNV-1" parent="WIyWlLk6GJQsqaUBKTNV-0" />
        <mxCell id="WIyWlLk6GJQsqaUBKTNV-7" value="homepage" style="rounded=1;whiteSpace=wrap;html=1;fontSize=12;glass=0;strokeWidth=1;shadow=0;fillColor=#dae8fc;strokeColor=#6c8ebf;" parent="WIyWlLk6GJQsqaUBKTNV-1" vertex="1">
          <mxGeometry x="80" y="50" width="120" height="80" as="geometry" />
        </mxCell>
        <mxCell id="PbGxyxQnYA3iW9gvICup-0" value="" style="endArrow=classic;html=1;rounded=0;exitX=0.5;exitY=1;exitDx=0;exitDy=0;" edge="1" parent="WIyWlLk6GJQsqaUBKTNV-1" source="WIyWlLk6GJQsqaUBKTNV-7" target="PbGxyxQnYA3iW9gvICup-1">
          <mxGeometry width="50" height="50" relative="1" as="geometry">
            <mxPoint x="390" y="430" as="sourcePoint" />
            <mxPoint x="140" y="210" as="targetPoint" />
          </mxGeometry>
        </mxCell>
        <mxCell id="PbGxyxQnYA3iW9gvICup-13" value="" style="edgeStyle=orthogonalEdgeStyle;rounded=0;orthogonalLoop=1;jettySize=auto;html=1;" edge="1" parent="WIyWlLk6GJQsqaUBKTNV-1" source="PbGxyxQnYA3iW9gvICup-1" target="PbGxyxQnYA3iW9gvICup-12">
          <mxGeometry relative="1" as="geometry" />
        </mxCell>
        <mxCell id="PbGxyxQnYA3iW9gvICup-1" value="reviewed books list(card)" style="rounded=0;whiteSpace=wrap;html=1;" vertex="1" parent="WIyWlLk6GJQsqaUBKTNV-1">
          <mxGeometry x="80" y="180" width="120" height="60" as="geometry" />
        </mxCell>
        <mxCell id="PbGxyxQnYA3iW9gvICup-2" value="" style="endArrow=classic;html=1;rounded=0;exitX=0;exitY=0.5;exitDx=0;exitDy=0;" edge="1" parent="WIyWlLk6GJQsqaUBKTNV-1" source="PbGxyxQnYA3iW9gvICup-1" target="PbGxyxQnYA3iW9gvICup-3">
          <mxGeometry width="50" height="50" relative="1" as="geometry">
            <mxPoint x="390" y="430" as="sourcePoint" />
            <mxPoint x="140" y="290" as="targetPoint" />
          </mxGeometry>
        </mxCell>
        <mxCell id="PbGxyxQnYA3iW9gvICup-3" value="book cover image&lt;div&gt;title&lt;/div&gt;&lt;div&gt;author&lt;/div&gt;&lt;div&gt;review&lt;/div&gt;&lt;div&gt;date&amp;nbsp;&lt;/div&gt;&lt;div&gt;grade&lt;/div&gt;&lt;div&gt;&lt;br&gt;&lt;/div&gt;" style="shape=note;whiteSpace=wrap;html=1;backgroundOutline=1;darkOpacity=0.05;fillColor=#fff2cc;strokeColor=#d6b656;" vertex="1" parent="WIyWlLk6GJQsqaUBKTNV-1">
          <mxGeometry x="-110" y="120" width="130" height="180" as="geometry" />
        </mxCell>
        <mxCell id="PbGxyxQnYA3iW9gvICup-4" value="" style="endArrow=classic;html=1;rounded=0;exitX=1;exitY=0.5;exitDx=0;exitDy=0;" edge="1" parent="WIyWlLk6GJQsqaUBKTNV-1" source="PbGxyxQnYA3iW9gvICup-1" target="PbGxyxQnYA3iW9gvICup-5">
          <mxGeometry width="50" height="50" relative="1" as="geometry">
            <mxPoint x="390" y="430" as="sourcePoint" />
            <mxPoint x="370" y="210" as="targetPoint" />
          </mxGeometry>
        </mxCell>
        <mxCell id="PbGxyxQnYA3iW9gvICup-28" value="click to see more" style="edgeLabel;html=1;align=center;verticalAlign=middle;resizable=0;points=[];" vertex="1" connectable="0" parent="PbGxyxQnYA3iW9gvICup-4">
          <mxGeometry x="-0.0833" relative="1" as="geometry">
            <mxPoint as="offset" />
          </mxGeometry>
        </mxCell>
        <mxCell id="PbGxyxQnYA3iW9gvICup-7" value="" style="edgeStyle=orthogonalEdgeStyle;rounded=0;orthogonalLoop=1;jettySize=auto;html=1;" edge="1" parent="WIyWlLk6GJQsqaUBKTNV-1" source="PbGxyxQnYA3iW9gvICup-5" target="PbGxyxQnYA3iW9gvICup-32">
          <mxGeometry relative="1" as="geometry">
            <mxPoint x="650" y="210" as="targetPoint" />
          </mxGeometry>
        </mxCell>
        <mxCell id="PbGxyxQnYA3iW9gvICup-27" value="to edit" style="edgeLabel;html=1;align=center;verticalAlign=middle;resizable=0;points=[];" vertex="1" connectable="0" parent="PbGxyxQnYA3iW9gvICup-7">
          <mxGeometry x="-0.0496" y="-1" relative="1" as="geometry">
            <mxPoint as="offset" />
          </mxGeometry>
        </mxCell>
        <mxCell id="PbGxyxQnYA3iW9gvICup-5" value="book reviewed details" style="rounded=0;whiteSpace=wrap;html=1;" vertex="1" parent="WIyWlLk6GJQsqaUBKTNV-1">
          <mxGeometry x="320" y="180" width="230" height="60" as="geometry" />
        </mxCell>
        <mxCell id="PbGxyxQnYA3iW9gvICup-11" value="" style="edgeStyle=orthogonalEdgeStyle;rounded=0;orthogonalLoop=1;jettySize=auto;html=1;" edge="1" parent="WIyWlLk6GJQsqaUBKTNV-1">
          <mxGeometry relative="1" as="geometry">
            <mxPoint x="770" y="210" as="sourcePoint" />
            <mxPoint x="850" y="210" as="targetPoint" />
          </mxGeometry>
        </mxCell>
        <mxCell id="PbGxyxQnYA3iW9gvICup-12" value="to add new review" style="shape=singleArrow;whiteSpace=wrap;html=1;arrowWidth=0.4;arrowSize=0.4;rounded=0;" vertex="1" parent="WIyWlLk6GJQsqaUBKTNV-1">
          <mxGeometry x="100" y="320" width="80" height="60" as="geometry" />
        </mxCell>
        <mxCell id="PbGxyxQnYA3iW9gvICup-14" value="button" style="endArrow=classic;html=1;rounded=0;exitX=1;exitY=0.5;exitDx=0;exitDy=0;exitPerimeter=0;" edge="1" parent="WIyWlLk6GJQsqaUBKTNV-1" source="PbGxyxQnYA3iW9gvICup-12" target="PbGxyxQnYA3iW9gvICup-15">
          <mxGeometry width="50" height="50" relative="1" as="geometry">
            <mxPoint x="390" y="480" as="sourcePoint" />
            <mxPoint x="320" y="350" as="targetPoint" />
          </mxGeometry>
        </mxCell>
        <mxCell id="PbGxyxQnYA3iW9gvICup-17" value="" style="edgeStyle=orthogonalEdgeStyle;rounded=0;orthogonalLoop=1;jettySize=auto;html=1;" edge="1" parent="WIyWlLk6GJQsqaUBKTNV-1" source="PbGxyxQnYA3iW9gvICup-15" target="PbGxyxQnYA3iW9gvICup-16">
          <mxGeometry relative="1" as="geometry" />
        </mxCell>
        <mxCell id="PbGxyxQnYA3iW9gvICup-15" value="opens a form to edit" style="rounded=0;whiteSpace=wrap;html=1;" vertex="1" parent="WIyWlLk6GJQsqaUBKTNV-1">
          <mxGeometry x="260" y="320" width="120" height="60" as="geometry" />
        </mxCell>
        <mxCell id="PbGxyxQnYA3iW9gvICup-19" value="" style="edgeStyle=orthogonalEdgeStyle;rounded=0;orthogonalLoop=1;jettySize=auto;html=1;" edge="1" parent="WIyWlLk6GJQsqaUBKTNV-1" source="PbGxyxQnYA3iW9gvICup-16">
          <mxGeometry relative="1" as="geometry">
            <mxPoint x="490" y="500" as="targetPoint" />
          </mxGeometry>
        </mxCell>
        <mxCell id="PbGxyxQnYA3iW9gvICup-21" value="" style="edgeStyle=orthogonalEdgeStyle;rounded=0;orthogonalLoop=1;jettySize=auto;html=1;" edge="1" parent="WIyWlLk6GJQsqaUBKTNV-1" source="PbGxyxQnYA3iW9gvICup-16">
          <mxGeometry relative="1" as="geometry">
            <mxPoint x="490" y="500" as="targetPoint" />
          </mxGeometry>
        </mxCell>
        <mxCell id="PbGxyxQnYA3iW9gvICup-16" value="Title name&lt;div&gt;author&lt;/div&gt;&lt;div&gt;review&lt;/div&gt;&lt;div&gt;date&lt;/div&gt;&lt;div&gt;grade&lt;/div&gt;" style="shape=note;whiteSpace=wrap;html=1;backgroundOutline=1;darkOpacity=0.05;fillColor=#fff2cc;strokeColor=#d6b656;" vertex="1" parent="WIyWlLk6GJQsqaUBKTNV-1">
          <mxGeometry x="255" y="415" width="130" height="170" as="geometry" />
        </mxCell>
        <mxCell id="PbGxyxQnYA3iW9gvICup-22" value="send new post to the beggining of the homepage" style="shape=singleArrow;whiteSpace=wrap;html=1;arrowWidth=0.4;arrowSize=0.4;" vertex="1" parent="WIyWlLk6GJQsqaUBKTNV-1">
          <mxGeometry x="690" y="425" width="220" height="150" as="geometry" />
        </mxCell>
        <mxCell id="PbGxyxQnYA3iW9gvICup-25" value="uses the db&amp;nbsp;&lt;b&gt;&lt;font color=&quot;#cc0000&quot;&gt;books&lt;/font&gt;&lt;/b&gt;&amp;nbsp;to match the&amp;nbsp;&lt;div&gt;title and author to&amp;nbsp;&lt;/div&gt;&lt;div&gt;find the cover&lt;/div&gt;" style="shape=cylinder3;whiteSpace=wrap;html=1;boundedLbl=1;backgroundOutline=1;size=15;fillColor=#e1d5e7;strokeColor=#9673a6;" vertex="1" parent="WIyWlLk6GJQsqaUBKTNV-1">
          <mxGeometry x="490" y="430" width="140" height="140" as="geometry" />
        </mxCell>
        <mxCell id="PbGxyxQnYA3iW9gvICup-31" value="" style="endArrow=classic;html=1;rounded=0;exitX=1;exitY=0.5;exitDx=0;exitDy=0;exitPerimeter=0;entryX=0;entryY=0.5;entryDx=0;entryDy=0;entryPerimeter=0;" edge="1" parent="WIyWlLk6GJQsqaUBKTNV-1" source="PbGxyxQnYA3iW9gvICup-25" target="PbGxyxQnYA3iW9gvICup-22">
          <mxGeometry width="50" height="50" relative="1" as="geometry">
            <mxPoint x="390" y="480" as="sourcePoint" />
            <mxPoint x="440" y="430" as="targetPoint" />
          </mxGeometry>
        </mxCell>
        <mxCell id="PbGxyxQnYA3iW9gvICup-34" value="" style="edgeStyle=orthogonalEdgeStyle;rounded=0;orthogonalLoop=1;jettySize=auto;html=1;" edge="1" parent="WIyWlLk6GJQsqaUBKTNV-1" source="PbGxyxQnYA3iW9gvICup-32" target="PbGxyxQnYA3iW9gvICup-33">
          <mxGeometry relative="1" as="geometry" />
        </mxCell>
        <mxCell id="PbGxyxQnYA3iW9gvICup-32" value="edit button" style="ellipse;whiteSpace=wrap;html=1;" vertex="1" parent="WIyWlLk6GJQsqaUBKTNV-1">
          <mxGeometry x="650" y="170" width="120" height="80" as="geometry" />
        </mxCell>
        <mxCell id="PbGxyxQnYA3iW9gvICup-36" value="" style="edgeStyle=orthogonalEdgeStyle;rounded=0;orthogonalLoop=1;jettySize=auto;html=1;" edge="1" parent="WIyWlLk6GJQsqaUBKTNV-1" source="PbGxyxQnYA3iW9gvICup-33" target="PbGxyxQnYA3iW9gvICup-35">
          <mxGeometry relative="1" as="geometry" />
        </mxCell>
        <mxCell id="PbGxyxQnYA3iW9gvICup-33" value="opens a form with the text to edit" style="whiteSpace=wrap;html=1;" vertex="1" parent="WIyWlLk6GJQsqaUBKTNV-1">
          <mxGeometry x="850" y="180" width="120" height="60" as="geometry" />
        </mxCell>
        <mxCell id="PbGxyxQnYA3iW9gvICup-35" value="save" style="ellipse;whiteSpace=wrap;html=1;" vertex="1" parent="WIyWlLk6GJQsqaUBKTNV-1">
          <mxGeometry x="1070" y="170" width="80" height="80" as="geometry" />
        </mxCell>
        <mxCell id="PbGxyxQnYA3iW9gvICup-37" value="send to bd &lt;b&gt;&lt;font color=&quot;#cc0000&quot;&gt;read&lt;/font&gt;&lt;/b&gt;" style="shape=cylinder3;whiteSpace=wrap;html=1;boundedLbl=1;backgroundOutline=1;size=15;fillColor=#e1d5e7;strokeColor=#9673a6;" vertex="1" parent="WIyWlLk6GJQsqaUBKTNV-1">
          <mxGeometry x="1200" y="170" width="60" height="80" as="geometry" />
        </mxCell>
        <mxCell id="PbGxyxQnYA3iW9gvICup-38" value="" style="endArrow=classic;html=1;rounded=0;exitX=1;exitY=0.5;exitDx=0;exitDy=0;entryX=0;entryY=0.5;entryDx=0;entryDy=0;entryPerimeter=0;" edge="1" parent="WIyWlLk6GJQsqaUBKTNV-1" source="PbGxyxQnYA3iW9gvICup-35" target="PbGxyxQnYA3iW9gvICup-37">
          <mxGeometry width="50" height="50" relative="1" as="geometry">
            <mxPoint x="660" y="360" as="sourcePoint" />
            <mxPoint x="710" y="310" as="targetPoint" />
          </mxGeometry>
        </mxCell>
        <mxCell id="PbGxyxQnYA3iW9gvICup-40" value="&lt;font color=&quot;#cc0000&quot;&gt;&lt;b&gt;books&lt;/b&gt;&lt;/font&gt; = list of the books with type to id - API" style="shape=cylinder3;whiteSpace=wrap;html=1;boundedLbl=1;backgroundOutline=1;size=15;fillColor=#e1d5e7;strokeColor=#9673a6;" vertex="1" parent="WIyWlLk6GJQsqaUBKTNV-1">
          <mxGeometry x="100" y="690" width="150" height="120" as="geometry" />
        </mxCell>
        <mxCell id="PbGxyxQnYA3iW9gvICup-41" value="&lt;b&gt;&lt;font color=&quot;#cc0000&quot;&gt;read&lt;/font&gt;&lt;/b&gt; = list of the books that the user reviewed to be added on the homepage" style="shape=cylinder3;whiteSpace=wrap;html=1;boundedLbl=1;backgroundOutline=1;size=15;fillColor=#e1d5e7;strokeColor=#9673a6;" vertex="1" parent="WIyWlLk6GJQsqaUBKTNV-1">
          <mxGeometry x="300" y="690" width="150" height="120" as="geometry" />
        </mxCell>
        <mxCell id="PbGxyxQnYA3iW9gvICup-42" value="a JOIN db to math the title of the book with the type = find the book cover = &lt;b&gt;&lt;font color=&quot;#cc0000&quot;&gt;book_cover&lt;/font&gt;&lt;/b&gt;" style="shape=cylinder3;whiteSpace=wrap;html=1;boundedLbl=1;backgroundOutline=1;size=15;fillColor=#e1d5e7;strokeColor=#9673a6;" vertex="1" parent="WIyWlLk6GJQsqaUBKTNV-1">
          <mxGeometry x="500" y="690" width="150" height="120" as="geometry" />
        </mxCell>
      </root>
    </mxGraphModel>
  </diagram>
</mxfile>
